<svg width="181" height="66" fill="none" xmlns="http://www.w3.org/2000/svg"><g clip-path="url(#clip0_962_854)" stroke-width="3.85"><path d="M33.788 67.92l.731-41.903m.264-15.123l14.86 15.387m-14.86-15.387l-.264 15.123m.264-15.123l-15.386 14.86m15.122.263l14.86 15.387" stroke="#205E40"/><path d="M33.788 67.92l.731-41.903m.264-15.123l14.86 15.387m-14.86-15.387l-.264 15.123m.264-15.123l-15.386 14.86m15.122.263l14.86 15.387" stroke="#000" stroke-opacity=".2"/><path d="M30.017 68.026l-.704-40.309-13.022 13.485" stroke="#205E40"/><path d="M30.017 68.026l-.704-40.309-13.022 13.485" stroke="#000" stroke-opacity=".2"/></g><rect x="2.2" y="2.2" width="61.6" height="61.6" rx="25.3" stroke="#205E40" stroke-width="4.4"/><rect x="2.2" y="2.2" width="61.6" height="61.6" rx="25.3" stroke="#000" stroke-opacity=".2" stroke-width="4.4"/><path d="M70.598 25.822c.587 0 .968-.088 1.144-.264.22-.19.337-.63.352-1.32L72.49 12.6h6.842V28h-2.464V14.8h-2.112l-.264 9.306c-.044 1.408-.337 2.413-.88 3.014-.543.601-1.423.902-2.64.902h-.374v-2.2zM84.77 28h-2.486V12.6h2.156v9.746l.88-3.388L87.3 12.6h2.662V28h-2.178V17.154l-.99 3.784L84.77 28zm15.021-5.742v2.046c0 2.581-1.203 3.872-3.608 3.872-2.405 0-3.608-1.29-3.608-3.872v-8.008c0-2.581 1.203-3.872 3.608-3.872 2.405 0 3.608 1.29 3.608 3.872v1.496h-2.288v-1.65c0-1.012-.418-1.518-1.254-1.518-.836 0-1.254.506-1.254 1.518v8.316c0 .997.418 1.496 1.254 1.496.836 0 1.254-.499 1.254-1.496v-2.2h2.288zm1.864-9.658h7.48v2.2h-2.53V28h-2.42V14.8h-2.53v-2.2zm13.298 0c2.391 0 3.586 1.18 3.586 3.542v.55c0 1.584-.521 2.618-1.562 3.102 1.203.47 1.804 1.57 1.804 3.3v1.254c0 2.435-1.225 3.652-3.674 3.652h-3.806V12.6h3.652zm-1.232 8.47v4.73h1.386c.836 0 1.254-.506 1.254-1.518V22.94c0-.704-.125-1.195-.374-1.474-.235-.264-.631-.396-1.188-.396h-1.078zm0-6.27v4.07h.946c.968 0 1.452-.543 1.452-1.628v-.858c0-1.056-.411-1.584-1.232-1.584h-1.166zm10.038 4.29h3.322v2.2h-3.322v4.51h4.18V28h-6.6V12.6h6.6v2.2h-4.18v4.29zm9.199 8.91h-2.42V12.6h2.42v6.6h2.75v-6.6h2.464V28h-2.464v-6.6h-2.75V28zm10.489 0h-2.42V12.6h2.42v6.6h2.75v-6.6h2.464V28h-2.464v-6.6h-2.75V28zm10.555 0h-2.486V12.6h2.156v9.746l.88-3.388 1.98-6.358h2.662V28h-2.178V17.154l-.99 3.784L154.002 28zm8.002-15.4h2.42v13.2h2.75V12.6h2.464v13.244h1.056v4.224h-2.354V28h-6.336V12.6zM180.948 28h-2.442l-.418-2.794h-2.97L174.7 28h-2.222l2.464-15.4h3.542l2.464 15.4zm-5.522-4.884h2.332l-1.166-7.788-1.166 7.788zM73.502 46.458c0 1.012.418 1.518 1.254 1.518.836 0 1.254-.506 1.254-1.518v-8.316c0-1.012-.418-1.518-1.254-1.518-.836 0-1.254.506-1.254 1.518v8.316zm-2.42-8.162c0-1.232.315-2.185.946-2.86.63-.675 1.54-1.012 2.728-1.012 1.188 0 2.097.337 2.728 1.012.63.675.946 1.628.946 2.86v8.008c0 1.232-.315 2.185-.946 2.86-.63.675-1.54 1.012-2.728 1.012-1.188 0-2.097-.337-2.728-1.012-.63-.675-.946-1.628-.946-2.86v-8.008zM83.522 50h-2.42V34.6h7.635V50h-2.464V36.8h-2.75V50zm7.365-15.4h7.48v2.2h-2.53V50h-2.42V36.8h-2.53v-2.2zm89.004 6.76l-75.971 2.818a1.1 1.1 0 01-1.141-1.1v-3.436a1.1 1.1 0 011.141-1.1l75.971 2.818z" fill="#002714"/><defs><clipPath id="clip0_962_854"><rect width="66" height="66" rx="27.5" fill="#fff"/></clipPath></defs></svg>